# xmcd CD database file
#
# Track frame offsets:
#	150
#	18443
#	40051
#	60053
#	77168
#	92548
#	108942
#	127676
#	146404
#	165310
#	184215
#	200481
#	219975
#	241166
#	256551
#
# Disc length: 4018 seconds
#
# Revision: 0
# Processed by: cddbd v1.5.1PL0 Copyright (c) Steve Scherf et al.
# Submitted via: CDex 1.51
#
DISCID=ac0fb00f
DTITLE=Billy Jack Gafford - The Call
DYEAR=2001
DGENRE=Country
TTITLE0=Fall Too Hard
TTITLE1=The Call
TTITLE2=You Got The Best Of Me
TTITLE3=Life Got In The Way
TTITLE4=If I Can't Have Your Love
TTITLE5=Why Can't Tomorrow Start Today
TTITLE6=Wishful Thinkin'
TTITLE7=Look What You've Done To Me
TTITLE8=Isn't That How Love Is
TTITLE9=One Life
TTITLE10=Once Again
TTITLE11=Bible and A Bus Ticket Home
TTITLE12=Just To Get To You
TTITLE13=I've Never Seen An Angel Fly
TTITLE14=What Do You Want From Me
EXTD=YEAR: 2001
EXTT0=
EXTT1=
EXTT2=
EXTT3=
EXTT4=
EXTT5=
EXTT6=
EXTT7=
EXTT8=
EXTT9=
EXTT10=
EXTT11=
EXTT12=
EXTT13=
EXTT14=
PLAYORDER=
